<svg xmlns="http://www.w3.org/2000/svg" xmlns:xlink="http://www.w3.org/1999/xlink" viewBox="0 0 500 500"><defs><style>.cls-1{fill:none;}.cls-2{fill:#6dbdc2;}.cls-3,.cls-5{fill:#fff;}.cls-12,.cls-13,.cls-14,.cls-4,.cls-5{fill-rule:evenodd;}.cls-6{font-size:33.56px;font-family:Quicksand-Bold, Quicksand Bold;font-weight:700;letter-spacing:-0.07em;}.cls-7{letter-spacing:-0.07em;}.cls-8{letter-spacing:-0.08em;}.cls-9{letter-spacing:-0.08em;}.cls-10{letter-spacing:-0.08em;}.cls-11{clip-path:url(#clip-path);}.cls-12{fill:#2f6ac2;}.cls-13{fill:#ffc2a4;}.cls-14{fill:#ffbd00;}</style><clipPath id="clip-path"><path class="cls-1" d="M363.56,159.44a17.62,17.62,0,0,0,1.48-5.6,7.21,7.21,0,0,0-1.52-5.12,19.88,19.88,0,0,0-3.71-3.79,11.38,11.38,0,0,0-5.5-2.5,18.83,18.83,0,0,0-9.3.69,158.37,158.37,0,0,0-46.93-24.19c-.43-3.14-.92-6.27-1.37-9.41-.1-.71-.19-1.43-.32-2.14-.83-4.66-1.68-9.31-2.52-14-.07-.39-.18-.77-.28-1.15-.25-.88-.53-1.76-.76-2.65-.5-2-.92-4-1.5-5.91a11.06,11.06,0,0,0-5.66-7,12.19,12.19,0,0,0-9.42-.53,14.62,14.62,0,0,0-9.07,8.49,18.31,18.31,0,0,0-1.67,7c0,.78-.08,1.57,0,2.35.09,1.78.25,3.54.37,5.31q.44,6.51.86,13c-3.57-.37-7.19-.62-10.83-.75q-1.16-4-2.35-8c-1.67-5.6-3.42-11.17-5.14-16.75-.44-1.43-.48-3-1.61-4.17a3,3,0,0,1-.35-.92c-.18-.49-.35-1-.57-1.47a10.78,10.78,0,0,0-6-6,12.48,12.48,0,0,0-11.36,1.16c-4.61,2.87-6.86,7.33-7.46,12.6a21.81,21.81,0,0,0,.19,6.29c.53,3,1,6.09,1.58,9.12.66,3.35,1.35,6.7,2,10q-6,.95-11.76,2.33-1.76-4.41-3.5-8.84a6.08,6.08,0,0,0-.53-1c-.72-1.17-1.47-2.33-2.19-3.49-.94-1.5-1.8-3.06-2.83-4.51a10.6,10.6,0,0,0-7.82-4.77,12.41,12.41,0,0,0-9.37,2.91c-4.53,3.84-6,9-5.42,14.7a24.29,24.29,0,0,0,1.71,6.66c.43,1.1.93,2.17,1.34,3.28.52,1.41,1,2.82,1.54,4.23A158.52,158.52,0,0,0,250,428.5a160.68,160.68,0,0,0,22.52-1.6,158.5,158.5,0,0,0,91-267.46Z"/></clipPath></defs><title>goodbye</title><g id="BACKGROUND"><rect class="cls-2" width="500" height="500"/></g><g id="OBJECTS"><circle class="cls-3" cx="250" cy="270" r="158.5" transform="translate(-25.39 25.95) rotate(-5.65)"/><path class="cls-4" d="M134.31,154.75a75.55,75.55,0,0,1,2.57-17.61,70.77,70.77,0,0,1,5.56-14.29,42.58,42.58,0,0,1,4.16-6.21,5.83,5.83,0,0,1,1.11-1.11,1.42,1.42,0,0,1,2,.13,1.39,1.39,0,0,1,.14,1.81c-.18.27-.41.51-.61.77a40,40,0,0,0-6,10.11,71.07,71.07,0,0,0-5.75,31.51,14.64,14.64,0,0,0,1.06,5.58,2.36,2.36,0,0,1,.15,1,1.64,1.64,0,0,1-1.28,1.55,1.43,1.43,0,0,1-1.67-1,22.08,22.08,0,0,1-.95-3.61A44.91,44.91,0,0,1,134.31,154.75Z"/><path class="cls-4" d="M116.58,146.08a38.18,38.18,0,0,1,1.09-7.41c1.07-4.6,2.22-9.18,3.7-13.67a35.58,35.58,0,0,1,8.1-13.8,8.21,8.21,0,0,1,1.15-1.06,1.39,1.39,0,0,1,1.82.08,1.49,1.49,0,0,1,.18,2,6.28,6.28,0,0,1-.64.74,33.85,33.85,0,0,0-8.19,14.39A137.74,137.74,0,0,0,120.11,142a19.43,19.43,0,0,0,.17,8.78,5.08,5.08,0,0,1,.17,1.16,1.68,1.68,0,0,1-.81,1.49,1.44,1.44,0,0,1-2.29-.92C117.05,150.38,116.83,148.23,116.58,146.08Z"/><path class="cls-4" d="M343.49,95.15a1.52,1.52,0,0,1-3,.64c-.24-.82-.37-1.67-.55-2.51A64.24,64.24,0,0,0,334.77,78,36.53,36.53,0,0,0,329,69.62c-1.86-2-3.78-4-5.67-6a5.49,5.49,0,0,1-.84-1.08,1.36,1.36,0,0,1,.26-1.63,1.43,1.43,0,0,1,1.63-.28,3.06,3.06,0,0,1,.8.57c2.46,2.64,5,5.22,7.35,8a39.74,39.74,0,0,1,7.22,12.8c1.13,3.14,2,6.37,3,9.58C343.07,92.69,343.24,93.93,343.49,95.15Z"/><path class="cls-4" d="M325.24,92.63a4.55,4.55,0,0,1-.24,1.08,1.39,1.39,0,0,1-1.48.76,1.31,1.31,0,0,1-1.18-.9,6,6,0,0,1-.2-.76,23.09,23.09,0,0,0-2.9-7.06,78.73,78.73,0,0,0-12.43-15.67,11.48,11.48,0,0,0-5.12-3.19,1.4,1.4,0,0,1-1.08-1.8A1.55,1.55,0,0,1,302.27,64a3.11,3.11,0,0,1,1.14.25A21.51,21.51,0,0,1,306,65.59a24.81,24.81,0,0,1,4.88,4.26,93.18,93.18,0,0,1,10.14,13,32.33,32.33,0,0,1,3.67,7.8C324.91,91.3,325.06,91.94,325.24,92.63Z"/><path class="cls-5" d="M189.1,308.47a11.94,11.94,0,0,1-4.92-.15c-5.12-.85-10.22-1.78-15.32-2.73a42.32,42.32,0,0,1-11.6-4.29,7.73,7.73,0,0,0-1.24-.58,1.69,1.69,0,0,0-1.68.25,3.05,3.05,0,0,1-.32.22,60.74,60.74,0,0,1-10.7,5.86c-5.8,2.62-11.59,5.29-17.39,7.91-3,1.36-6.12,2.36-9.21,3.47-6.11,2.21-12.19,4.5-18.3,6.73-1.85.68-3.73,1.26-5.6,1.88-3,1-6.09,2.07-9.16,3q-6,1.84-12.1,3.53a35.72,35.72,0,0,1-33.37-7.47A55,55,0,0,1,33,320.76,27.67,27.67,0,0,1,26.67,307a42.64,42.64,0,0,1,2.62-23.39,50.15,50.15,0,0,1,4.58-8.7q3.77-5.79,8-11.23a106.22,106.22,0,0,1,13.3-13.69,109.64,109.64,0,0,1,15.35-11.35c2.12-1.32,4.21-2.7,6.31-4a140.88,140.88,0,0,1,24.76-12.5,81.39,81.39,0,0,1,19.47-4.76,89.45,89.45,0,0,1,15.34-.64c8.17.37,16.23,1.45,23.85,4.66A51.6,51.6,0,0,1,183.14,240c.63.91,1.17,1.9,1.72,2.87a19.89,19.89,0,0,1,2.52,9.42,38,38,0,0,1-1.32,10.12,54,54,0,0,1-9.82,19.8,78,78,0,0,1-7.25,8.57c-1,1-1.05,1.67-.05,2.68a36.4,36.4,0,0,0,5.32,4.67c4.54,3.13,9.06,6.29,13.59,9.44C188.28,307.85,188.69,308.17,189.1,308.47Z"/><path class="cls-4" d="M172.08,292.17a5.81,5.81,0,0,0,2,2c2.17,1.6,4.35,3.17,6.56,4.72q3.63,2.53,7.32,5c2.18,1.46,4.41,2.86,6.61,4.29a8.66,8.66,0,0,1,1.43,1,1.46,1.46,0,0,1-.81,2.54,18.06,18.06,0,0,1-2,.19,37.24,37.24,0,0,1-8.44-.49c-5.38-.85-10.73-1.88-16.1-2.82a44.73,44.73,0,0,1-11.51-4c-.47-.22-1-.42-1.37-.61a1.37,1.37,0,0,0-.45.1,79.61,79.61,0,0,1-11.51,6c-6.52,3-13,5.91-19.59,8.78-2.1.92-4.32,1.55-6.48,2.34-6,2.22-12.06,4.47-18.11,6.67-1.91.7-3.85,1.32-5.78,1.95-3.62,1.18-7.22,2.44-10.87,3.49s-7.23,2.39-10.95,3.2c-2.63.57-5.26,1.17-7.89,1.71a5.41,5.41,0,0,1-1.55-.06c-.52-.05-1-.21-1.55-.21a39.36,39.36,0,0,1-12-2.18,38,38,0,0,1-15.61-10,37.44,37.44,0,0,1-6.24-8.08,33.68,33.68,0,0,1-3.72-11.35,45.75,45.75,0,0,1,2.95-24,48.38,48.38,0,0,1,5-9.38c2.22-3.26,4.45-6.51,6.8-9.67a82,82,0,0,1,10.37-11.58,129.64,129.64,0,0,1,12-10.21c2.66-1.92,5.43-3.69,8.17-5.5,2.14-1.41,4.31-2.77,6.47-4.15a143.8,143.8,0,0,1,25.1-12.69,84.14,84.14,0,0,1,21.59-5.13,95.19,95.19,0,0,1,18.1-.32c7.29.6,14.46,1.79,21.27,4.64a54.57,54.57,0,0,1,24.38,19.88,27.47,27.47,0,0,1,3.7,7.38,21.92,21.92,0,0,1,.94,5.22,40.09,40.09,0,0,1-1.4,12.47,56.27,56.27,0,0,1-10.21,20.48c-1.84,2.39-3.81,4.69-5.71,7C172.68,291.33,172.39,291.75,172.08,292.17Zm17,16.3c-.41-.3-.82-.62-1.25-.92-4.53-3.15-9-6.31-13.59-9.44a36.4,36.4,0,0,1-5.32-4.67c-1-1-1-1.68.05-2.68a78,78,0,0,0,7.25-8.57,54,54,0,0,0,9.82-19.8,38,38,0,0,0,1.32-10.12,19.89,19.89,0,0,0-2.52-9.42c-.55-1-1.09-2-1.72-2.87a51.6,51.6,0,0,0-22.89-18.67c-7.62-3.21-15.68-4.29-23.85-4.66a89.45,89.45,0,0,0-15.34.64,81.39,81.39,0,0,0-19.47,4.76,140.88,140.88,0,0,0-24.76,12.5c-2.1,1.34-4.19,2.72-6.31,4a109.64,109.64,0,0,0-15.35,11.35,106.22,106.22,0,0,0-13.3,13.69q-4.24,5.44-8,11.23a50.15,50.15,0,0,0-4.58,8.7A42.64,42.64,0,0,0,26.67,307,27.67,27.67,0,0,0,33,320.76a55,55,0,0,0,5.23,5.35,35.72,35.72,0,0,0,33.37,7.47q6.06-1.68,12.1-3.53c3.07-.94,6.11-2,9.16-3,1.87-.62,3.75-1.2,5.6-1.88,6.11-2.23,12.19-4.52,18.3-6.73,3.09-1.11,6.22-2.11,9.21-3.47,5.8-2.62,11.59-5.29,17.39-7.91a60.74,60.74,0,0,0,10.7-5.86,3.05,3.05,0,0,0,.32-.22,1.69,1.69,0,0,1,1.68-.25,7.73,7.73,0,0,1,1.24.58,42.32,42.32,0,0,0,11.6,4.29c5.1,1,10.2,1.88,15.32,2.73A11.94,11.94,0,0,0,189.1,308.47Z"/><text class="cls-6" transform="translate(48.71 323.87) rotate(-29.2)">G<tspan class="cls-7" x="19.33" y="0">ood</tspan><tspan class="cls-8" x="67.55" y="0">b</tspan><tspan class="cls-9" x="83.89" y="0">y</tspan><tspan class="cls-10" x="96.84" y="0">e!</tspan></text><g class="cls-11"><path class="cls-12" d="M371.68,423.4c-.56-2.5-1-5-1.59-7.52-.79-3.52-1.59-7.05-2.43-10.56q-1.4-5.85-2.88-11.67c-1.42-5.6-3.29-11.07-5.18-16.54-1.13-3.28-2.29-6.57-3.54-9.81-1.95-5.1-3.45-10.34-5.11-15.53-.34-1.06-.72-2.12-1.13-3.15-.27-.66-.63-1.28-1-2a7,7,0,0,0-1.6.18,21.4,21.4,0,0,1-5.81,1,41.85,41.85,0,0,0-10,2.22c-3,.94-6,1.94-9,2.81a35.93,35.93,0,0,1-5.2,1.11,85.24,85.24,0,0,0-19.08,4.72c-4,1.49-8.11,2.64-12.23,3.76s-8.31,2.46-12.48,3.63a53,53,0,0,0-6.43,1.84,1.39,1.39,0,0,1-.75.09c-1.59-.42-2.92.23-4.27.89a5.76,5.76,0,0,0,.25,2.79c1.93,7.1,3.15,14.37,4.88,21.51,1.22,5,2.59,10,3.89,15.07,1.23,4.77,2.53,9.52,3.66,14.31,1.36,5.82,2.54,11.68,3.83,17.52,1,4.36,2,8.71,2.94,13.07.77,3.53,1.45,7.08,2.18,10.61q1.36,6.6,2.74,13.2c16.56-6.08,33.32-11.58,50.06-17.16,10.27-3.43,20.63-6.59,30.91-10,3.54-1.18,7.14-2.55,10.78-3.59-1-3.2-2-6.42-2.92-9.65C373.9,432.18,372.67,427.82,371.68,423.4Zm-25.36-51.75a9.54,9.54,0,0,1-7.59,7.12,5.79,5.79,0,0,1-3.81-.63c-2.24-1.17-4.93-3.55-5.09-6.6a15.31,15.31,0,0,1,.56-6.24,5.07,5.07,0,0,1,1.82-2.49,10.57,10.57,0,0,1,5.21-2.13,7,7,0,0,1,4.84,1.19A9.82,9.82,0,0,1,346.32,371.65Z"/><path class="cls-13" d="M274.74,186.23a3.75,3.75,0,0,0,.86-3.78,7.66,7.66,0,0,1-.17-1.36c-.3-3.93-.57-7.86-.89-11.79-.48-6-1-11.92-1.49-17.87-.18-2.1-.59-4.17-.77-6.26-.29-3.4-.46-6.82-.73-10.22-.53-6.81-1.11-13.62-1.64-20.43a18.82,18.82,0,0,1-.09-5.3,2.93,2.93,0,0,0,0-.78c-.25-3.67-.51-7.34-.74-11-.13-2.09-.34-4.2-.26-6.29a12.76,12.76,0,0,1,6.83-11.44,9.47,9.47,0,0,1,8.58-.31,7.52,7.52,0,0,1,4.14,5c.66,2.21,1.25,4.43,1.73,6.68.95,4.49,1.79,9,2.7,13.52.83,4.12,1.17,8.32,1.66,12.49.16,1.37.36,2.74.54,4.11.27,2.14.59,4.29.79,6.45q.67,7.45,1.24,14.92c.14,2,.3,4,.56,6s.29,3.93.44,5.9c.34,4.45.76,8.9,1,13.36.33,5.9.54,11.81.8,17.72,0,.2.08.43,0,.59-.52,1.11-.11,2.14.22,3.21.49,1.63.88,3.29,1.32,5-.85,1.11-1.69,2.2-2.51,3.3a50.25,50.25,0,0,0-6,11.3,84.3,84.3,0,0,0-2.87,8.79,16.49,16.49,0,0,0-.73,5c0,1.11-.1,2.23-.18,3.34a8.24,8.24,0,0,0,.48,3.87,8.66,8.66,0,0,1,.3,1.34c.26,1.07.9,1.63,1.72,1.54s1.45-.91,1.33-2c-.16-1.64-.32-3.27-.47-4.9a26.7,26.7,0,0,1,1.34-10.49,64.17,64.17,0,0,1,5.76-13.35,29.73,29.73,0,0,1,7.86-9,7.69,7.69,0,0,1,3.1-1.65,3.05,3.05,0,0,0,1.15-.71c1-.84,2-1.68,3-2.57a5.37,5.37,0,0,0,1.39-1.85c.4-.88,1.19-1.58,1.66-2.43,1.07-2,2.05-4,3-6,.62-1.23,1.18-2.49,1.76-3.74a5.41,5.41,0,0,0,.78-2.81,3.49,3.49,0,0,1,.34-1.32,26.77,26.77,0,0,1,4.59-8.44,47,47,0,0,1,6.94-7.77,23,23,0,0,1,4.54-4.32,19.7,19.7,0,0,1,8.82-4.15,13.62,13.62,0,0,1,6.62.43c2.69.86,4.51,2.86,6.15,5a2.34,2.34,0,0,1,.44,1.08,8.79,8.79,0,0,1-.44,5.22c-.61,1.31-1.25,2.6-2,3.85-2.13,3.71-4.29,7.39-6.45,11.07a32.2,32.2,0,0,0-2.76,6.31c-.18.56-.43,1.09-.66,1.63a134.37,134.37,0,0,0-5.14,12.79,67,67,0,0,0-2.53,11.53c-.56,4.36-1.2,8.72-1.45,13.11a1.2,1.2,0,0,1-.09.58c-.81,1.2-.53,2.53-.45,3.83a51.67,51.67,0,0,1-.33,8.06q-.7,7.65-1.48,15.3c-.25,2.48-.65,4.94-.89,7.43-.27,2.8-.48,5.62-.65,8.44a129.06,129.06,0,0,1-2.76,19.48,24,24,0,0,1-1.24,3.94,32.89,32.89,0,0,1-2.31,5c-1.54,2.5-3.31,4.86-5,7.26-.76,1.06-1.6,2.08-2.41,3.1a3.46,3.46,0,0,0-.69,2.78,81.63,81.63,0,0,0,1.8,9.68c1.15,4.24,2.44,8.44,3.59,12.68.81,3,1.5,6,2.21,9a12.56,12.56,0,0,1,.17,1.64l-1.12.36c-3.93,1.28-7.93,2.35-11.92,3.43a30.33,30.33,0,0,1-5.42,1,67.31,67.31,0,0,0-11.62,2.12c-2.28.6-4.62,1-6.9,1.65s-4.7,1.17-7.09,1.63a76.4,76.4,0,0,0-7.41,2c-2.33.68-4.63,1.46-7,2.19-.88.27-1.77.51-2.78.8a6.92,6.92,0,0,1-.65-1.14c-1.27-3.87-2.54-7.73-3.76-11.62q-2.34-7.41-4.58-14.87c-.56-1.82-1.08-3.65-1.49-5.51a6.41,6.41,0,0,0-2-3.53c-1.73-1.51-3.47-3-5.3-4.4-2.25-1.71-4.59-3.29-6.88-4.93a7.82,7.82,0,0,1-.77-.63,98.85,98.85,0,0,1-9.54-9.66,75.46,75.46,0,0,1-4.72-6.79,154.51,154.51,0,0,1-7.92-14.52c-2-4-4.05-8-6-12-1.68-3.49-3.24-7-4.85-10.56q-3.17-6.9-6.33-13.78a20.69,20.69,0,0,0-1.22-2,34.55,34.55,0,0,1-3.35-5.77,3.29,3.29,0,0,0-.72-1.15A107.65,107.65,0,0,1,189.39,216c-3.06-4.35-5.9-8.86-8.86-13.27q-4.62-6.87-9.3-13.69c-2.54-3.67-5.11-7.33-7.76-10.93a17.19,17.19,0,0,1-3.06-7.16,11.55,11.55,0,0,1,6.42-12.34c3.2-1.39,6.08-.61,8.58,1.56,1.88,1.64,3.61,3.46,5.35,5.24,1.1,1.13,2.11,2.35,3.15,3.54a9.71,9.71,0,0,1,1.69,2.4,5.35,5.35,0,0,0,1.21,1.53,109.61,109.61,0,0,1,8,9.21q5.44,6.73,10.87,13.51c1.35,1.69,2.62,3.45,4,5.14s2.76,3.34,4.12,5c.74.92,1.44,1.87,2.13,2.82a1.55,1.55,0,0,0,2.51.33c.35-.29.66-.63,1-.93a1.55,1.55,0,0,0,.44-2.12c-.77-1.22-.94-2.71-2-3.83a6.63,6.63,0,0,1-1-2.13c-2.62-6.73-5.19-13.48-7.86-20.19-2.86-7.2-5.23-14.58-7.71-21.92-2.56-7.52-5.15-15-7.91-22.48q-3.9-10.51-7.78-21c-.21-.56-.43-1.11-.6-1.67-1.31-4.66-.77-9,2.37-12.81a9.66,9.66,0,0,1,8.95-3.53,7.42,7.42,0,0,1,5.38,3.65c1.31,2,2.54,4.14,3.73,6.26.86,1.55,1.62,3.15,2.37,4.76.36.76.56,1.6.88,2.38a17.38,17.38,0,0,0,.88,2,6.64,6.64,0,0,1,1,2.56,4.26,4.26,0,0,0,.37,1.11c1.9,4.76,3.74,9.53,5.71,14.26.83,2,1.86,3.9,2.57,5.94q2.65,7.52,5.33,15c2.56,7.18,5.22,14.31,8.16,21.34,1.36,3.27,2.45,6.65,3.67,10,1.12,3,2.26,6,3.37,9a8,8,0,0,1,.68,2.44c.07,1.19,1,1.65,2.12,1.28a2.73,2.73,0,0,0,1.68-1.56,8.5,8.5,0,0,0,.88-4.39c-.18-2-.46-4.05-.79-6.05a91.34,91.34,0,0,0-2.52-10.73c-1.57-5.36-3.19-10.7-4.44-16.14-.73-3.2-1.42-6.42-2-9.65-.78-4.53-1.48-9.06-2.54-13.53-1.13-4.8-2.25-9.59-3.25-14.42-1-5-2-10-2.88-15.09s-1.53-9.86-2.34-14.79a15.57,15.57,0,0,1,.41-6.82,12.18,12.18,0,0,1,5.49-7.19,9.49,9.49,0,0,1,8.17-.91,7.45,7.45,0,0,1,4.37,4c1,2.13,1.91,4.32,2.81,6.5a14.27,14.27,0,0,1,1,3.79,20.44,20.44,0,0,0,1,3.79c1.92,6.21,3.89,12.41,5.76,18.63,1.34,4.47,2.62,9,3.79,13.46,1.06,4.07,1.92,8.19,2.92,12.27,1.83,7.53,3.72,15,5.56,22.56q1.32,5.37,2.53,10.74a75.09,75.09,0,0,0,2.92,11A3.64,3.64,0,0,0,274.74,186.23Zm.34,34.47v.06a30.65,30.65,0,0,0-3.72.39c-4.36,1-8.72,1.9-13,3.16A76.06,76.06,0,0,0,240.71,232a55.66,55.66,0,0,0-9.43,7.09,4.32,4.32,0,0,0-.84,1.07,1.59,1.59,0,0,0,.56,2.08,1.51,1.51,0,0,0,1.94-.36c1.14-1.08,2.24-2.22,3.46-3.19a63.6,63.6,0,0,1,18.43-10,98,98,0,0,1,12.7-3.55c3.78-.8,7.53-1.84,11.47-1.51a1.39,1.39,0,0,0,1.41-.89,1.57,1.57,0,0,0-1.41-2.36C277.69,220.37,276.39,220.57,275.08,220.7Z"/><path class="cls-5" d="M338.82,344.9c-1.25.28-2.28.46-3.28.76q-5.55,1.66-11.09,3.41a47.23,47.23,0,0,1-8.22,1.94,82.48,82.48,0,0,0-18.12,4.45c-4.19,1.55-8.47,2.81-12.77,4-3,.84-6,1.8-9,2.67-2,.56-3.93,1.06-5.9,1.55-.75.19-1.54.27-2.25.39a45.43,45.43,0,0,1-3.25-8.55,2.67,2.67,0,0,1,1.9-1.22c6.1-1.79,12.2-3.58,18.32-5.33,1.06-.3,2.2-.37,3.28-.63,2.49-.6,4.95-1.28,7.44-1.89,3.18-.78,6.37-1.57,9.58-2.24,1.73-.36,3.5-.52,5.27-.71a44.74,44.74,0,0,0,8.1-1.56c2.26-.68,4.59-1.14,6.83-1.88a28.66,28.66,0,0,1,7.25-1.64c.76-.05,1.42-.55,2.26-.48a2.15,2.15,0,0,1,1.8,1,6.71,6.71,0,0,1,.4.68A25.55,25.55,0,0,1,338.82,344.9Z"/><path class="cls-14" d="M337.69,363.73a3.8,3.8,0,0,1,2.48.41,6.59,6.59,0,0,1,3.31,5.9,6.22,6.22,0,0,1-4.21,5.45,3.89,3.89,0,0,1-3.89-.6,5.89,5.89,0,0,1-2.59-4.84c0-.39,0-.79,0-1.18a3.33,3.33,0,0,1,1.08-2.83C334.57,364.32,336.1,364,337.69,363.73Z"/><path class="cls-4" d="M332.75,334.81c1,.06,2,.15,3,.17a4.15,4.15,0,0,1,3.47,1.93,9.24,9.24,0,0,1,1.48,3c.41,1.52.84,3,1.27,4.58a5.52,5.52,0,0,0,2.91-.17c1.28-.28,2.57-.52,3.87-.71a2.43,2.43,0,0,1,2.62,1.36,23.6,23.6,0,0,1,1.6,3.37c.93,2.67,1.8,5.35,2.6,8.06,1.37,4.67,3.19,9.18,4.82,13.75,2.51,7.06,5,14.11,7,21.34,1,3.68,1.88,7.38,2.79,11.08q1.25,5.18,2.44,10.35c.64,2.83,1.23,5.65,1.8,8.49.95,4.63,2.23,9.18,3.57,13.72,1.66,5.67,3.34,11.33,5.35,16.9a3,3,0,0,1,.12.62,3.26,3.26,0,0,1-2.78.75q-.19-.47-.36-.9c-1.92-5.25-3.48-10.61-5.07-16-1.29-4.34-2.52-8.7-3.51-13.12-.56-2.5-1-5-1.59-7.52-.79-3.52-1.59-7.05-2.43-10.56q-1.4-5.85-2.88-11.67c-1.42-5.6-3.29-11.07-5.18-16.54-1.13-3.28-2.29-6.57-3.54-9.81-1.95-5.1-3.45-10.34-5.11-15.53-.34-1.06-.72-2.12-1.13-3.15-.27-.66-.63-1.28-1-2a7,7,0,0,0-1.6.18,21.4,21.4,0,0,1-5.81,1,41.85,41.85,0,0,0-10,2.22c-3,.94-6,1.94-9,2.81a35.93,35.93,0,0,1-5.2,1.11,85.24,85.24,0,0,0-19.08,4.72c-4,1.49-8.11,2.64-12.23,3.76s-8.31,2.46-12.48,3.63a53,53,0,0,0-6.43,1.84,1.39,1.39,0,0,1-.75.09c-1.59-.42-2.92.23-4.27.89a5.76,5.76,0,0,0,.25,2.79c1.93,7.1,3.15,14.37,4.88,21.51,1.22,5,2.59,10,3.89,15.07,1.23,4.77,2.53,9.52,3.66,14.31,1.36,5.82,2.54,11.68,3.83,17.52,1,4.36,2,8.71,2.94,13.07.77,3.53,1.45,7.08,2.18,10.61q2.1,10.14,4.21,20.26c.05.25.05.51.09.84a8.39,8.39,0,0,1-2.57,1,7.4,7.4,0,0,1-.46-1.12c-.51-2.24-1-4.49-1.48-6.74-1.13-5.67-2.17-11.35-3.36-17-1.23-5.85-2.59-11.66-3.89-17.5-.56-2.57-1.09-5.14-1.65-7.71-1.08-4.87-2.18-9.74-3.26-14.61-1.26-5.71-3-11.29-4.48-16.95-1.38-5.34-2.59-10.72-3.84-16.1s-2.43-10.62-3.64-15.94c-.19-.83-.36-1.67-.47-2.52-.27-2.1.38-3.17,2.4-3.93.67-.25,1.38-.41,2.07-.62l1.42-.45c-.15-.56-.23-1.06-.41-1.53-.73-2-1.5-4.06-2.24-6.1a6.16,6.16,0,0,1-.33-1.33,1.47,1.47,0,0,1,.14-.94c.76-1,1.23-2.35,2.59-2.86a5.1,5.1,0,0,0,.77-.44c-.09-.37-.15-.74-.27-1.1q-3.73-11.73-7.48-23.45c-.46-1.44-.77-2.92-1.18-4.37s-.92-3-1.32-4.53a3.8,3.8,0,0,0-1.21-2c-1.55-1.3-3.08-2.66-4.7-3.88-2.31-1.73-4.7-3.36-7-5a7.47,7.47,0,0,1-.76-.63,97.54,97.54,0,0,1-10.1-10.23,83.29,83.29,0,0,1-4.93-7.11c-3.46-5.44-6.25-11.25-9.19-17-3.8-7.35-7.31-14.84-10.62-22.42-1.37-3.13-2.83-6.22-4.27-9.31-.33-.71-.83-1.33-1.21-2s-.61-1.3-1-1.91a82.64,82.64,0,0,0-6.57-9.81c-3.89-4.73-7.26-9.83-10.67-14.9-2.56-3.81-5.06-7.67-7.64-11.47-1.18-1.74-2.49-3.39-3.7-5.11-2.52-3.6-5-7.23-7.54-10.83-.75-1.08-1.55-2.12-2.34-3.17a21.81,21.81,0,0,1-3-5.52c-1.8-5-1.84-10,1-14.63a12.61,12.61,0,0,1,9.61-6.17,10.62,10.62,0,0,1,7.72,2.43,15.27,15.27,0,0,1,1.47,1.31c7.58,7.56,4.87,3.94,13.75,15.13,5.31,6.69,10.72,13.29,16.06,20,1.48,1.84,2.88,3.74,4.33,5.61a4.13,4.13,0,0,0,1.52,1.51c-.19-.56-.3-.93-.43-1.28-2.17-5.64-4.3-11.29-6.54-16.9-3-7.63-5.6-15.43-8.25-23.2q-2.73-8-5.53-16a10.15,10.15,0,0,0-1.11-2.27,14.31,14.31,0,0,1-1.24-2.89c-.67-1.85-1.26-3.72-1.93-5.57q-2.18-6-4.39-12c-.41-1.11-.91-2.18-1.34-3.28a24.29,24.29,0,0,1-1.71-6.66c-.57-5.75.89-10.86,5.42-14.7a12.41,12.41,0,0,1,9.37-2.91,10.6,10.6,0,0,1,7.82,4.77c1,1.45,1.89,3,2.83,4.51.72,1.16,1.47,2.32,2.19,3.49a6.08,6.08,0,0,1,.53,1c2.23,5.61,4.43,11.23,6.66,16.84a14.55,14.55,0,0,0,1.45,3,13.28,13.28,0,0,1,1.22,2.89c1,2.64,2,5.28,3,7.94,1.43,3.95,2.83,7.91,4.23,11.87,2.81,7.92,5.7,15.81,8.86,23.6,1.93,4.74,3.55,9.6,5.31,14.41.38,1,.79,2.05,1.2,3.1.54-.23.37-.6.32-.85-.44-2.52-.76-5.08-1.4-7.55-1.37-5.27-2.92-10.5-4.36-15.75q-1.91-6.94-3.22-14c-.89-4.77-2-9.51-2.8-14.3-.9-5.25-2.35-10.37-3.34-15.6-1.21-6.39-2.61-12.74-3.86-19.12-.6-3-1.05-6.09-1.58-9.12a21.81,21.81,0,0,1-.19-6.29c.6-5.27,2.85-9.73,7.46-12.6a12.48,12.48,0,0,1,11.36-1.16,10.78,10.78,0,0,1,6,6c.22.48.39,1,.57,1.47a3,3,0,0,0,.35.92c1.13,1.17,1.17,2.74,1.61,4.17,1.72,5.58,3.47,11.15,5.14,16.75,1.78,6,3.48,12,5.22,18,.37,1.26.78,2.51,1.11,3.78a50.94,50.94,0,0,1,1.39,5.92,59.76,59.76,0,0,0,1.46,6.12c1.31,5.43,2.58,10.87,3.92,16.29.88,3.57,1.89,7.11,2.77,10.68.73,2.93,1.36,5.89,2,8.83a1.35,1.35,0,0,0,.35.72c0-.36,0-.72,0-1.07-.58-7.14-1.13-14.28-1.74-21.41-.4-4.52-1.05-9-1.29-13.54-.41-7.61-1.34-15.18-1.84-22.79q-.53-7.86-1-15.73c-.12-1.77-.28-3.53-.37-5.31,0-.78,0-1.57,0-2.35a18.31,18.31,0,0,1,1.67-7,14.62,14.62,0,0,1,9.07-8.49,12.19,12.19,0,0,1,9.42.53,11.06,11.06,0,0,1,5.66,7c.58,2,1,3.94,1.5,5.91.23.89.51,1.77.76,2.65.1.38.21.76.28,1.15.84,4.65,1.69,9.3,2.52,14,.13.71.22,1.43.32,2.14.6,4.16,1.27,8.31,1.77,12.48.48,4,.85,8,1.15,12,.49,6.68.88,13.37,1.34,20,.25,3.61.62,7.21.85,10.81.28,4.39.46,8.79.69,13.18.18,3.55.34,7.09.54,10.63a7.72,7.72,0,0,0,.83,3c.18,0,.34,0,.43,0,2.06-1.38,4.12-2.78,6.18-4.18a.44.44,0,0,0,.15-.12,49.08,49.08,0,0,0,4-4.3,19,19,0,0,0,2.16-4.18c.93-2.24,1.71-4.54,2.58-6.81.52-1.35,1.08-2.68,1.63-4,2.22-5.37,5.82-9.8,9.65-14.07a49.88,49.88,0,0,1,5.14-5.14,36,36,0,0,1,6.28-4.4,19.08,19.08,0,0,1,12.23-1.93,11.38,11.38,0,0,1,5.5,2.5,19.88,19.88,0,0,1,3.71,3.79,7.21,7.21,0,0,1,1.52,5.12,17.06,17.06,0,0,1-2,6.73c-1.41,2.52-2.91,5-4.34,7.5-1,1.71-1.93,3.44-2.86,5.17a12.34,12.34,0,0,0-.61,1.45c-.19.48-.33,1-.56,1.45q-3.06,6.29-5.73,12.76a59,59,0,0,0-3,9.37,11,11,0,0,0-.36,2.7,12.22,12.22,0,0,1-.49,2.91,25.77,25.77,0,0,0-.64,5.46,5.91,5.91,0,0,1-.4,2.3,7.38,7.38,0,0,0-.41,2.31c-.27,3.73-.46,7.47-.77,11.2-.32,4.06-.73,8.11-1.11,12.16-.29,3.07-.44,6.16-.89,9.21-.85,5.6-1.09,11.24-1.54,16.86a127.19,127.19,0,0,1-2.76,18.1,36.11,36.11,0,0,1-1.85,5.39,26.79,26.79,0,0,1-4.84,8.29.61.61,0,0,0-.12.16c-1.09,2.13-2.77,3.82-4.17,5.72a2.84,2.84,0,0,0-.57,2,42.67,42.67,0,0,0,1.49,8.33c1.49,5.79,3.07,11.55,4.61,17.33.45,1.71.87,3.44,1.31,5.15A10,10,0,0,0,332.75,334.81Zm-58-148.58a3.64,3.64,0,0,1-3.62-2.42,75.09,75.09,0,0,1-2.92-11Q267,167.4,265.67,162c-1.84-7.52-3.73-15-5.56-22.56-1-4.08-1.86-8.2-2.92-12.27-1.17-4.51-2.45-9-3.79-13.46-1.87-6.22-3.84-12.42-5.76-18.63a20.44,20.44,0,0,1-1-3.79,14.27,14.27,0,0,0-1-3.79c-.9-2.18-1.79-4.37-2.81-6.5a7.45,7.45,0,0,0-4.37-4,9.49,9.49,0,0,0-8.17.91,12.18,12.18,0,0,0-5.49,7.19,15.57,15.57,0,0,0-.41,6.82c.81,4.93,1.48,9.87,2.34,14.79s1.84,10.08,2.88,15.09c1,4.83,2.12,9.62,3.25,14.42,1.06,4.47,1.76,9,2.54,13.53.55,3.23,1.24,6.45,2,9.65,1.25,5.44,2.87,10.78,4.44,16.14a91.34,91.34,0,0,1,2.52,10.73c.33,2,.61,4,.79,6.05a8.5,8.5,0,0,1-.88,4.39,2.73,2.73,0,0,1-1.68,1.56c-1.14.37-2-.09-2.12-1.28a8,8,0,0,0-.68-2.44c-1.11-3-2.25-6-3.37-9-1.22-3.33-2.31-6.71-3.67-10-2.94-7-5.6-14.16-8.16-21.34q-2.69-7.5-5.33-15c-.71-2-1.74-3.95-2.57-5.94-2-4.73-3.81-9.5-5.71-14.26a4.26,4.26,0,0,1-.37-1.11,6.64,6.64,0,0,0-1-2.56,17.38,17.38,0,0,1-.88-2c-.32-.78-.52-1.62-.88-2.38-.75-1.61-1.51-3.21-2.37-4.76-1.19-2.12-2.42-4.21-3.73-6.26a7.42,7.42,0,0,0-5.38-3.65,9.66,9.66,0,0,0-8.95,3.53c-3.14,3.83-3.68,8.15-2.37,12.81.17.56.39,1.11.6,1.67q3.89,10.53,7.78,21c2.76,7.45,5.35,15,7.91,22.48,2.48,7.34,4.85,14.72,7.71,21.92,2.67,6.71,5.24,13.46,7.86,20.19a6.63,6.63,0,0,0,1,2.13c1,1.12,1.19,2.61,2,3.83a1.55,1.55,0,0,1-.44,2.12c-.35.3-.66.64-1,.93a1.55,1.55,0,0,1-2.51-.33c-.69-1-1.39-1.9-2.13-2.82-1.36-1.69-2.77-3.33-4.12-5s-2.62-3.45-4-5.14q-5.41-6.78-10.87-13.51a109.61,109.61,0,0,0-8-9.21,5.35,5.35,0,0,1-1.21-1.53,9.71,9.71,0,0,0-1.69-2.4c-1-1.19-2-2.41-3.15-3.54-1.74-1.78-3.47-3.6-5.35-5.24-2.5-2.17-5.38-2.95-8.58-1.56a11.55,11.55,0,0,0-6.42,12.34,17.19,17.19,0,0,0,3.06,7.16c2.65,3.6,5.22,7.26,7.76,10.93q4.7,6.81,9.3,13.69c3,4.41,5.8,8.92,8.86,13.27a107.65,107.65,0,0,0,9.08,11.89,3.29,3.29,0,0,1,.72,1.15,34.55,34.55,0,0,0,3.35,5.77,20.69,20.69,0,0,1,1.22,2q3.18,6.87,6.33,13.78c1.61,3.52,3.17,7.07,4.85,10.56,1.95,4,4,8,6,12a154.51,154.51,0,0,0,7.92,14.52,75.46,75.46,0,0,0,4.72,6.79,98.85,98.85,0,0,0,9.54,9.66,7.82,7.82,0,0,0,.77.63c2.29,1.64,4.63,3.22,6.88,4.93,1.83,1.39,3.57,2.89,5.3,4.4a6.41,6.41,0,0,1,2,3.53c.41,1.86.93,3.69,1.49,5.51q2.25,7.46,4.58,14.87c1.22,3.89,2.49,7.75,3.76,11.62a6.92,6.92,0,0,0,.65,1.14c1-.29,1.9-.53,2.78-.8,2.32-.73,4.62-1.51,7-2.19a76.4,76.4,0,0,1,7.41-2c2.39-.46,4.75-1,7.09-1.63s4.62-1.05,6.9-1.65a67.31,67.31,0,0,1,11.62-2.12,30.33,30.33,0,0,0,5.42-1c4-1.08,8-2.15,11.92-3.43l1.12-.36a12.56,12.56,0,0,0-.17-1.64c-.71-3-1.4-6-2.21-9-1.15-4.24-2.44-8.44-3.59-12.68a81.63,81.63,0,0,1-1.8-9.68,3.46,3.46,0,0,1,.69-2.78c.81-1,1.65-2,2.41-3.1,1.71-2.4,3.48-4.76,5-7.26a32.89,32.89,0,0,0,2.31-5,24,24,0,0,0,1.24-3.94,129.06,129.06,0,0,0,2.76-19.48c.17-2.82.38-5.64.65-8.44.24-2.49.64-5,.89-7.43q.78-7.65,1.48-15.3a51.67,51.67,0,0,0,.33-8.06c-.08-1.3-.36-2.63.45-3.83a1.2,1.2,0,0,0,.09-.58c.25-4.39.89-8.75,1.45-13.11a67,67,0,0,1,2.53-11.53A134.37,134.37,0,0,1,349.44,180c.23-.54.48-1.07.66-1.63a32.2,32.2,0,0,1,2.76-6.31c2.16-3.68,4.32-7.36,6.45-11.07.72-1.25,1.36-2.54,2-3.85a8.79,8.79,0,0,0,.44-5.22,2.34,2.34,0,0,0-.44-1.08c-1.64-2.17-3.46-4.17-6.15-5a13.62,13.62,0,0,0-6.62-.43,19.7,19.7,0,0,0-8.82,4.15,23,23,0,0,0-4.54,4.32,47,47,0,0,0-6.94,7.77,26.77,26.77,0,0,0-4.59,8.44,3.49,3.49,0,0,0-.34,1.32,5.41,5.41,0,0,1-.78,2.81c-.58,1.25-1.14,2.51-1.76,3.74-1,2-2,4-3,6-.47.85-1.26,1.55-1.66,2.43a5.37,5.37,0,0,1-1.39,1.85c-1,.89-2,1.73-3,2.57a3.05,3.05,0,0,1-1.15.71,7.69,7.69,0,0,0-3.1,1.65,29.73,29.73,0,0,0-7.86,9,64.17,64.17,0,0,0-5.76,13.35,26.7,26.7,0,0,0-1.34,10.49c.15,1.63.31,3.26.47,4.9.12,1.13-.4,1.93-1.33,2s-1.46-.47-1.72-1.54a8.66,8.66,0,0,0-.3-1.34,8.24,8.24,0,0,1-.48-3.87c.08-1.11.21-2.23.18-3.34a16.49,16.49,0,0,1,.73-5,84.3,84.3,0,0,1,2.87-8.79,50.25,50.25,0,0,1,6-11.3c.82-1.1,1.66-2.19,2.51-3.3-.44-1.69-.83-3.35-1.32-5-.33-1.07-.74-2.1-.22-3.21.08-.16,0-.39,0-.59-.26-5.91-.47-11.82-.8-17.72-.25-4.46-.67-8.91-1-13.36-.15-2-.18-3.95-.44-5.9s-.42-4-.56-6q-.56-7.45-1.24-14.92c-.2-2.16-.52-4.31-.79-6.45-.18-1.37-.38-2.74-.54-4.11-.49-4.17-.83-8.37-1.66-12.49-.91-4.51-1.75-9-2.7-13.52-.48-2.25-1.07-4.47-1.73-6.68a7.52,7.52,0,0,0-4.14-5,9.47,9.47,0,0,0-8.58.31,12.76,12.76,0,0,0-6.83,11.44c-.08,2.09.13,4.2.26,6.29.23,3.68.49,7.35.74,11a2.93,2.93,0,0,1,0,.78,18.82,18.82,0,0,0,.09,5.3c.53,6.81,1.11,13.62,1.64,20.43.27,3.4.44,6.82.73,10.22.18,2.09.59,4.16.77,6.26.53,5.95,1,11.91,1.49,17.87.32,3.93.59,7.86.89,11.79a7.66,7.66,0,0,0,.17,1.36A3.75,3.75,0,0,1,274.74,186.23ZM338.82,344.9a25.55,25.55,0,0,0-1.5-5.29,6.71,6.71,0,0,0-.4-.68,2.15,2.15,0,0,0-1.8-1c-.84-.07-1.5.43-2.26.48a28.66,28.66,0,0,0-7.25,1.64c-2.24.74-4.57,1.2-6.83,1.88a44.74,44.74,0,0,1-8.1,1.56c-1.77.19-3.54.35-5.27.71-3.21.67-6.4,1.46-9.58,2.24-2.49.61-4.95,1.29-7.44,1.89-1.08.26-2.22.33-3.28.63-6.12,1.75-12.22,3.54-18.32,5.33a2.67,2.67,0,0,0-1.9,1.22,45.43,45.43,0,0,0,3.25,8.55c.71-.12,1.5-.2,2.25-.39,2-.49,3.94-1,5.9-1.55,3-.87,6-1.83,9-2.67,4.3-1.19,8.58-2.45,12.77-4A82.48,82.48,0,0,1,316.23,351a47.23,47.23,0,0,0,8.22-1.94q5.54-1.76,11.09-3.41C336.54,345.36,337.57,345.18,338.82,344.9Z"/><path class="cls-4" d="M329.83,371.54a15.31,15.31,0,0,1,.56-6.24,5.07,5.07,0,0,1,1.82-2.49,10.57,10.57,0,0,1,5.21-2.13,7,7,0,0,1,4.84,1.19,9.82,9.82,0,0,1,4.06,9.78,9.54,9.54,0,0,1-7.59,7.12,5.79,5.79,0,0,1-3.81-.63C332.68,377,330,374.59,329.83,371.54Zm7.86-7.81c-1.59.25-3.12.59-3.82,2.31a3.33,3.33,0,0,0-1.08,2.83c0,.39,0,.79,0,1.18a5.89,5.89,0,0,0,2.59,4.84,3.89,3.89,0,0,0,3.89.6,6.22,6.22,0,0,0,4.21-5.45,6.59,6.59,0,0,0-3.31-5.9A3.8,3.8,0,0,0,337.69,363.73Z"/><path class="cls-4" d="M275.08,220.7c1.31-.13,2.61-.33,3.92-.36a1.57,1.57,0,0,1,1.41,2.36,1.39,1.39,0,0,1-1.41.89c-3.94-.33-7.69.71-11.47,1.51a98,98,0,0,0-12.7,3.55,63.6,63.6,0,0,0-18.43,10c-1.22,1-2.32,2.11-3.46,3.19a1.51,1.51,0,0,1-1.94.36,1.59,1.59,0,0,1-.56-2.08,4.32,4.32,0,0,1,.84-1.07,55.66,55.66,0,0,1,9.43-7.09,76.06,76.06,0,0,1,17.65-7.67c4.29-1.26,8.65-2.18,13-3.16a30.65,30.65,0,0,1,3.72-.39Z"/></g></g></svg>