<svg id="Layer_1" data-name="Layer 1" xmlns="http://www.w3.org/2000/svg" viewBox="0 0 426.4 220.41"><defs><style>.cls-1{fill:#646a76;}.cls-2{fill:#4a4e57;}.cls-3{fill:#ccc;}.cls-4{fill:#e8e9ea;}.cls-5{fill:#00a11e;}.cls-6{fill:#fb3e28;}.cls-7{fill:#fe5720;}.cls-8{fill:#f86014;}.cls-9{fill:#ff7510;}.cls-10{fill:#ff7012;}.cls-11{fill:#ff840d;}.cls-12{fill:#fe9000;}.cls-13{fill:#ffa600;}.cls-14{fill:#ffb900;}.cls-15{fill:#f9bd05;}.cls-16{fill:#ffd602;}.cls-17{fill:#ffdf00;}.cls-18{fill:#ffeb01;}.cls-19{fill:#ebe400;}.cls-20{fill:#d7dd01;}.cls-21{fill:#c3d702;}.cls-22{fill:#aad000;}.cls-23{fill:#93c501;}.cls-24{fill:#7ec100;}.cls-25{fill:#6cc509;}.cls-26{fill:#56c20d;}.cls-27{fill:#3dc115;}.cls-28{fill:#2cbb13;}.cls-29{fill:#24bd1c;}.cls-30{fill:#eee;}.cls-31{font-size:18.69px;fill:red;font-family:FelixTitlingMT, Felix Titling;}.cls-32{letter-spacing:-0.02em;}.cls-33{letter-spacing:-0.05em;}</style></defs><title>Overloaded_meter</title><path class="cls-1" d="M973,576.92c-16,5.9-25.14,21.23-20.36,34.23s21.67,18.76,37.7,12.86,114.2-68.79,114.2-68.79S989,571,973,576.92Z" transform="translate(-746.8 -429.81)"/><path class="cls-2" d="M1103.45,555.92l-150.7,55.49c0-.08-.06-.17-.1-.26-4.78-13,4.33-28.33,20.36-34.23s131.54-21.7,131.54-21.7Z" transform="translate(-746.8 -429.81)"/><path class="cls-3" d="M953,529.21a95.72,95.72,0,0,1,92.3,121H860.68a95.72,95.72,0,0,1,92.3-121Z" transform="translate(-746.8 -429.81)"/><path class="cls-4" d="M953,535.57a95.7,95.7,0,0,0-95.65,92.51c0-1.05-.05-2.11-.05-3.17a95.7,95.7,0,0,1,191.4,0c0,1.06,0,2.12,0,3.17A95.7,95.7,0,0,0,953,535.57Z" transform="translate(-746.8 -429.81)"/><path class="cls-5" d="M746.8,643.72q.18-8.81.87-17.26c.26-3.18,1.67-5.56,3.07-5.36l23,3.15c1.4.2,2.3,2.56,2.08,5.3q-.6,7.34-.75,15c-.06,2.87-1.2,5.23-2.61,5.24H749.3C747.89,649.77,746.73,647,746.8,643.72Z" transform="translate(-746.8 -429.81)"/><path class="cls-6" d="M1172.33,626.46q.69,8.44.87,17.26c.07,3.32-1.09,6-2.5,6h-23.19c-1.41,0-2.55-2.37-2.61-5.24q-.15-7.63-.75-15c-.22-2.74.68-5.1,2.08-5.3l23-3.15C1170.66,620.9,1172.07,623.28,1172.33,626.46Z" transform="translate(-746.8 -429.81)"/><path class="cls-7" d="M1167.62,594q1.64,7.73,2.83,15.8c.44,3-.39,5.74-1.79,6l-23,3.74c-1.4.22-2.8-1.77-3.18-4.4q-1-7-2.46-13.71c-.53-2.51.1-4.84,1.46-5.25l22.45-6.62C1165.33,589.15,1167,591.13,1167.62,594Z" transform="translate(-746.8 -429.81)"/><path class="cls-8" d="M1159.24,564.54q2.52,7,4.61,14.34c.79,2.77.28,5.41-1.08,5.84l-22.32,7.16c-1.36.43-3-1.2-3.65-3.59q-1.82-6.37-4-12.44c-.82-2.28-.47-4.57.84-5.17l21.47-9.78C1156.42,560.29,1158.29,561.9,1159.24,564.54Z" transform="translate(-746.8 -429.81)"/><path class="cls-9" d="M1147.54,538q3.3,6.27,6.23,12.89c1.1,2.5.89,5.07-.41,5.69l-21.28,10.26c-1.29.62-3.08-.67-4-2.82q-2.54-5.75-5.4-11.18c-1.07-2-1-4.28.24-5.06L1143,535.12C1144.25,534.35,1146.3,535.59,1147.54,538Z" transform="translate(-746.8 -429.81)"/><path class="cls-10" d="M1132.86,514.28q4,5.55,7.67,11.44c1.38,2.22,1.48,4.71.26,5.5l-19.89,13c-1.22.79-3.13-.16-4.33-2.08q-3.16-5.11-6.65-9.92c-1.3-1.8-1.48-4-.35-4.9l18.49-15.13C1129.18,511.3,1131.36,512.2,1132.86,514.28Z" transform="translate(-746.8 -429.81)"/><path class="cls-11" d="M1115.82,493.81q4.61,4.83,8.92,10c1.62,2,2,4.34.89,5.28l-18.23,15.48c-1.11.94-3.12.3-4.52-1.39q-3.75-4.48-7.74-8.67c-1.5-1.57-1.92-3.66-.92-4.72l16.6-17.31C1111.83,491.43,1114.08,492,1115.82,493.81Z" transform="translate(-746.8 -429.81)"/><path class="cls-12" d="M1096.55,476.18q5.13,4.1,10,8.56c1.84,1.69,2.49,4,1.5,5l-16.3,17.6c-1,1.07-3.06.73-4.64-.73q-4.23-3.87-8.68-7.43c-1.67-1.33-2.33-3.32-1.46-4.5l14.47-19.17C1092.31,474.37,1094.62,474.63,1096.55,476.18Z" transform="translate(-746.8 -429.81)"/><path class="cls-13" d="M1075.39,461.38q5.56,3.39,10.92,7.13c2,1.41,2.92,3.56,2.06,4.74l-14.13,19.42c-.86,1.18-3,1.11-4.69-.11q-4.65-3.24-9.47-6.18c-1.81-1.1-2.71-3-2-4.25l12.13-20.73C1071,460.14,1073.29,460.1,1075.39,461.38Z" transform="translate(-746.8 -429.81)"/><path class="cls-14" d="M1052.66,449.42q5.92,2.65,11.67,5.69c2.17,1.14,3.32,3.15,2.6,4.42l-11.77,20.93c-.72,1.27-2.8,1.47-4.67.48q-5-2.62-10.12-4.94c-1.93-.86-3-2.62-2.45-4l9.63-22C1048.13,448.73,1050.43,448.41,1052.66,449.42Z" transform="translate(-746.8 -429.81)"/><path class="cls-15" d="M1028.71,440.29q6.18,1.95,12.25,4.26c2.28.87,3.66,2.71,3.09,4.06l-9.25,22.14c-.57,1.34-2.61,1.79-4.59,1q-5.25-2-10.62-3.69c-2-.64-3.31-2.25-2.89-3.64q3.49-11.46,7-22.92C1024.13,440.13,1026.37,439.55,1028.71,440.29Z" transform="translate(-746.8 -429.81)"/><path class="cls-16" d="M1003.85,434q6.38,1.23,12.67,2.83c2.37.6,3.94,2.26,3.54,3.66q-3.31,11.52-6.61,23c-.41,1.41-2.39,2.08-4.44,1.56-3.63-.92-7.3-1.73-11-2.45-2.07-.4-3.55-1.85-3.3-3.29q2.16-11.76,4.3-23.54C999.29,434.36,1001.45,433.53,1003.85,434Z" transform="translate(-746.8 -429.81)"/><path class="cls-17" d="M978.42,430.54q6.48.52,12.92,1.4c2.42.33,4.18,1.8,3.94,3.24q-1.93,11.81-3.88,23.61c-.24,1.44-2.13,2.34-4.22,2-3.72-.5-7.46-.91-11.2-1.2-2.11-.17-3.75-1.45-3.66-2.9q.76-11.94,1.52-23.87C973.93,431.41,976,430.35,978.42,430.54Z" transform="translate(-746.8 -429.81)"/><path class="cls-18" d="M952.76,429.93q6.5-.21,13-.05c2.45.06,4.37,1.34,4.3,2.79l-1.11,23.89c-.07,1.46-1.84,2.55-4,2.5-3.76-.09-7.51-.08-11.27,0-2.11.06-3.89-1-4-2.48q-.63-11.94-1.27-23.88C948.4,431.29,950.31,430,952.76,429.93Z" transform="translate(-746.8 -429.81)"/><path class="cls-19" d="M927.19,432.14c4.28-.61,8.59-1.1,12.9-1.47,2.44-.21,4.5.84,4.6,2.29l1.68,23.86c.1,1.45-1.53,2.74-3.64,2.92q-5.61.48-11.19,1.28c-2.09.3-4-.58-4.23-2q-2-11.79-4-23.59C923,434,924.77,432.49,927.19,432.14Z" transform="translate(-746.8 -429.81)"/><path class="cls-20" d="M902,437.2c4.19-1.1,8.41-2.06,12.65-2.91,2.4-.48,4.57.33,4.83,1.76q2.24,11.76,4.46,23.52c.26,1.44-1.21,2.9-3.28,3.31q-5.52,1.11-11,2.53c-2,.53-4-.14-4.45-1.54q-3.37-11.49-6.76-23C898.11,439.49,899.68,437.81,902,437.2Z" transform="translate(-746.8 -429.81)"/><path class="cls-21" d="M877.65,445.09q6-2.35,12.23-4.35c2.32-.75,4.57-.18,5,1.21l7.17,22.87c.43,1.39-.86,3-2.87,3.66q-5.35,1.72-10.6,3.77c-2,.76-4,.33-4.59-1q-4.69-11-9.4-22.07C874,447.82,875.38,446,877.65,445.09Z" transform="translate(-746.8 -429.81)"/><path class="cls-22" d="M854.35,455.81q5.73-3.06,11.63-5.78c2.23-1,4.53-.72,5.12.62l9.78,21.91c.59,1.34-.5,3.1-2.42,4q-5.12,2.34-10.09,5c-1.86,1-4,.82-4.68-.45q-5.94-10.43-11.9-20.85C851.06,459,852.19,457,854.35,455.81Z" transform="translate(-746.8 -429.81)"/><path class="cls-23" d="M832.47,469.37q5.32-3.78,10.87-7.21c2.09-1.29,4.41-1.27,5.15,0l12.27,20.64c.74,1.26-.14,3.15-1.94,4.27q-4.8,3-9.43,6.25c-1.73,1.23-3.82,1.32-4.69.14l-14.26-19.32C829.57,473,830.46,470.8,832.47,469.37Z" transform="translate(-746.8 -429.81)"/><path class="cls-24" d="M812.33,485.77q4.84-4.5,9.95-8.65c1.92-1.56,4.22-1.84,5.11-.67L842,495.52c.89,1.17.23,3.17-1.43,4.51q-4.41,3.6-8.62,7.5c-1.58,1.47-3.64,1.84-4.64.77l-16.42-17.49C809.87,489.75,810.51,487.47,812.33,485.77Z" transform="translate(-746.8 -429.81)"/><path class="cls-25" d="M794.28,505q4.28-5.24,8.85-10.09c1.72-1.83,4-2.42,5-1.37l16.71,17.19c1,1.05.6,3.15-.88,4.73q-4,4.21-7.68,8.75c-1.39,1.69-3.4,2.36-4.52,1.42L793.42,510.3C792.3,509.37,792.66,507,794.28,505Z" transform="translate(-746.8 -429.81)"/><path class="cls-26" d="M778.63,527.08q3.63-5.94,7.59-11.52c1.5-2.1,3.66-3,4.79-2.1l18.6,15c1.13.92,1,3.09-.32,4.91q-3.45,4.83-6.59,10c-1.18,1.93-3.08,2.9-4.31,2.12l-20-12.89C777.19,531.81,777.27,529.31,778.63,527.08Z" transform="translate(-746.8 -429.81)"/><path class="cls-27" d="M765.73,552q2.89-6.66,6.17-13c1.23-2.37,3.27-3.63,4.49-2.87l20.21,12.51c1.23.76,1.32,3,.26,5.06Q794,559.17,791.51,565c-.94,2.16-2.71,3.46-4,2.85l-21.33-10.13C764.86,557.06,764.64,554.49,765.73,552Z" transform="translate(-746.8 -429.81)"/><path class="cls-28" d="M755.91,579.73q2.07-7.38,4.56-14.39c.94-2.65,2.81-4.26,4.12-3.66l21.5,9.69c1.31.59,1.67,2.89.86,5.17q-2.16,6.09-4,12.48c-.67,2.4-2.28,4-3.64,3.61L757,585.57C755.65,585.14,755.13,582.5,755.91,579.73Z" transform="translate(-746.8 -429.81)"/><path class="cls-29" d="M749.49,610.3q1.15-8.09,2.8-15.82c.61-2.91,2.27-4.9,3.64-4.49l22.46,6.57c1.36.41,2,2.74,1.46,5.26q-1.41,6.7-2.43,13.72c-.38,2.63-1.77,4.63-3.17,4.41l-23-3.69C749.88,616.05,749.05,613.35,749.49,610.3Z" transform="translate(-746.8 -429.81)"/><path class="cls-2" d="M988,624.06a102.32,102.32,0,0,0-70,0c-5.15,1.87-10.74-.83-12.89-6.23q-3.78-9.47-7.54-18.94c-2.41-6,.41-13.08,6.15-15.24a139.09,139.09,0,0,1,98.56,0c5.74,2.16,8.56,9.19,6.15,15.24q-3.76,9.47-7.54,18.94C998.72,623.23,993.12,625.93,988,624.06Z" transform="translate(-746.8 -429.81)"/><path class="cls-30" d="M991.3,622.65a7.67,7.67,0,0,1-2.63-.46,104.24,104.24,0,0,0-71.38,0,7.67,7.67,0,0,1-2.63.46,8.45,8.45,0,0,1-7.72-5.56l-7.53-18.94a10.23,10.23,0,0,1,.14-7.89,8.73,8.73,0,0,1,4.85-4.74,137.18,137.18,0,0,1,97.16,0,8.73,8.73,0,0,1,4.85,4.74,10.23,10.23,0,0,1,.14,7.89L999,617.09A8.45,8.45,0,0,1,991.3,622.65Z" transform="translate(-746.8 -429.81)"/><text class="cls-31" transform="translate(164.2 173.57) scale(0.61 1)"><tspan class="cls-32">O</tspan><tspan x="14.73" y="0">ver</tspan><tspan class="cls-32" x="52.53" y="0">l</tspan><tspan class="cls-33" x="62.2" y="0">o</tspan><tspan x="76.47" y="0">aded </tspan></text></svg>