<svg id="Layer_1" data-name="Layer 1" xmlns="http://www.w3.org/2000/svg" viewBox="0 0 345.25 144.69"><defs><style>.cls-1{fill:#a6cc26;}.cls-1,.cls-2{fill-rule:evenodd;}.cls-2{fill:#007d3b;}</style></defs><title>poticl</title><path class="cls-1" d="M797.41,538.81c.15-32.68,22.6-51.36,51.45-51.38,18.39.22,37,9.67,49.08,31.52,11.19,22.89,6.15,56.57-16.23,73-18,12.79-45.53,15.85-64.62,5.1-26.84-16.9-37.08-44.61-25.18-74.72-7.7,29.5,2.91,50.17,25.76,64.55,17.18,9.87,53.92,6.35,68-18.54,9.75-17.51,7.07-40.39-5.74-53.63-14.38-14.57-31-18.77-50.2-10.45-15,7.25-24.58,19.64-24.88,41.39,5.09-23,25.57-32.76,43.67-25.49-16.2-4.23-34.67,5.42-35.46,29.67,0,9.77,4.81,17.51,15.33,22.78,13.74,6.2,32.23,2.26,39.73-14.85-3.76,22.43-30,30.37-50.23,18.66Q799,564.32,797.41,538.81Z" transform="translate(-787 -468)"/><path class="cls-2" d="M845.34,533.7a11.79,11.79,0,1,1-11.79,11.79,11.79,11.79,0,0,1,11.79-11.79Z" transform="translate(-787 -468)"/><path class="cls-2" d="M1093.46,468h26.38l.18,101.39c-.23,4,1.17,6.06,4.34,6.08h7.89l0,3.74h-38.28l0-3.72h9.35c2.43,0,3.79-1.16,3.89-3.75l-.17-90.5c0-8.62-6.2-9.87-13.49-9.68V468Z" transform="translate(-787 -468)"/><path class="cls-2" d="M1067.1,504.86c12-1,19.6,4.68,23.71,11.68s4.25,21.36-6.09,24c-5.91.75-9.76-1.61-12-6.54-3-7.77,3.57-13.26,11.36-13.76,2-.13,3-1.81,1.27-4-4.74-5.8-12.35-9.51-21.17-6.75-5.84,1.93-11.5,8.58-13.48,19.68-3.25,26.31,1.64,45.27,14.55,48.67A22.31,22.31,0,0,0,1092.92,556h3.62c-.43,13.2-9.94,27.32-30.6,26.26-17.87-1.48-31.15-18-30.27-40.73,1.71-24.73,18.57-35.48,31.43-36.67Z" transform="translate(-787 -468)"/><path class="cls-2" d="M1002.43,477.26h5.26v30.53l21.37-.11v5.82l-21.48,0,.09,52.17c-.06,10.4,8.05,13.92,15.27,9.47,6.34-4,8.05-12.3,7.65-22.64a1.45,1.45,0,0,1,1-1.15l1.76-.54c.85-.25,1.21.15,1.1,1.19.84,16.6-4.59,27.85-17.94,29.77-11.68,1.17-20.61-2.78-21.7-19.33l-.43-48.78-14.53,0,0-4.6c15.53-2,22.59-13.09,22.64-31.75Z" transform="translate(-787 -468)"/><path class="cls-2" d="M907.14,507.4h26.19v16.31c0,.69.24.85.84-.53,5.31-13.47,14.7-17.78,26.25-16.63,13.28,1.43,30.51,22,25.11,46-3,12.61-10.18,25-23.83,29-12.19,3-21-2.12-26.64-12.15-1.32-2.44-1.89-2.33-1.72.36l0,34.91,5.86,4.45H948v3.55H908v-4h8c3.1,0,5-1.17,5.11-3.79V518.86c.32-5.2-2.43-7.49-7.13-7.68l-6.74,0-.07-3.8Zm30.34,15.4c8.22-17.5,26.21-16,30.78-3.56,3.68,11.69,4.77,25.09,2.93,39.65-1.24,11.24-8,21.74-20.26,19.51-19.45-5.3-21.79-38-13.45-55.6Z" transform="translate(-787 -468)"/></svg>